<svg width="512" height="512" viewBox="0 0 512 512" fill="none" xmlns="http://www.w3.org/2000/svg">
<rect width="512" height="512" rx="50" fill="#1D1D1D"/>
<path d="M280.717 471.848C251.35 471.848 223.941 466.969 198.979 457.698C174.017 448.426 152.97 435.251 135.84 419.148C118.709 402.558 105.494 383.527 96.1941 360.593C86.405 338.146 82 314.236 82 288.374C82 262.512 86.4051 239.578 95.2152 217.619C104.025 195.173 116.262 176.142 131.924 159.552C147.587 142.961 166.675 130.274 189.679 120.515C212.684 110.755 237.156 106.364 264.076 106.364C290.996 106.364 308.127 109.779 327.705 116.123C347.772 122.466 365.392 132.226 380.565 144.425C395.738 156.624 407.975 172.239 416.785 191.269C425.595 210.3 430 231.77 430 255.193C430 278.615 428.532 282.519 425.595 299.597L208.278 289.838C210.236 308.869 219.046 323.508 234.709 332.779C250.371 342.05 269.949 346.442 293.443 346.442C336.025 346.442 373.713 334.731 406.017 311.796H413.848V441.107C399.164 449.89 380.076 457.21 356.582 463.065C333.089 468.921 307.637 471.848 280.228 471.848H280.717ZM213.173 258.12L312.532 252.753C309.595 243.969 304.211 237.138 295.89 232.258C287.57 227.379 277.781 224.451 266.034 224.451C254.287 224.451 244.008 227.379 234.709 232.746C224.92 238.602 218.067 246.897 213.173 257.632V258.12Z" fill="#F9F9F9"/>
<path d="M388.397 40H140.734V52.6871C141.224 59.0306 148.566 64.3982 157.376 64.3982H405.038V40H388.397Z" fill="#F5F2A9"/>
</svg>
