<?xml version="1.0" encoding="UTF-8"?>
<svg id="Calque_1"
    xmlns="http://www.w3.org/2000/svg"
    xmlns:xlink="http://www.w3.org/1999/xlink" viewBox="0 0 355 177">
    <defs>
        <style>.cls-1{fill:none;}.cls-2{clip-path:url(#clippath);}.cls-3{fill:#f9f9f9;}.cls-4{fill:#f4f8ac;}.cls-5{clip-path:url(#clippath-1);}</style>
        <clipPath id="clippath">
            <rect class="cls-1" width="355" height="177"/>
        </clipPath>
        <clipPath id="clippath-1">
            <rect class="cls-1" x="244" y="126" width="111" height="50"/>
        </clipPath>
    </defs>
    <g class="cls-2">
        <g>
            <path class="cls-3" d="M62.7,86.3c3-2.9,6.8-4.3,11.5-4.3s4.2,.3,6,1V3h-28.4V24.8c0,8.5,.8,16.5,2.2,23.9,.7,3.8,2.4,10.1,4.9,18.9h-1.1l-8-25.3L31.7,3H0V87H28.4v-21.7c0-2.5-.1-4.9-.2-7.2-.2-2.3-.3-4.3-.4-6,0-1.7-.3-3.6-.7-5.7-.4-2.1-.6-3.7-.8-4.8-.2-1.1-.5-2.7-1.1-4.9-.5-2.2-.9-3.7-1.1-4.4-.2-.8-.7-2.4-1.4-4.9s-1.2-4.1-1.4-4.8h1.1l7.7,24.5,18.5,39.9h13.4c.2-.2,.4-.5,.7-.7Z"/>
            <path class="cls-3" d="M107.9,88.5c-7.1,0-12.6-2.6-16.5-7.7-3.8-5.1-5.7-13.4-5.7-24.7V15h28.1v30.2c0,1.3,0,2.7,.3,4.2,.2,1.5,.4,2.9,.8,3.9s.9,2,1.5,2.9c.6,.9,1.4,1.6,2.4,2,1,.4,2.1,.6,3.4,.6s2,0,2.8-.4c.8-.3,1.6-.9,2.5-1.8,.9-1,1.6-2.3,2.1-4,.5-1.7,1-4,1.3-7.1,.4-3,.6-6.7,.6-10.9V15h28.1V87h-28.5l4.6-40.9h-1.2c-.8,7.9-1.9,14.5-3.1,19.7-1.3,5.2-3,9.6-5.1,13-2.1,3.4-4.6,5.9-7.6,7.4-2.9,1.5-6.6,2.2-10.8,2.2h0Z"/>
            <path class="cls-3" d="M324.6,88.5c-6,0-11.6-1-16.7-2.9s-9.4-4.6-12.9-7.9c-3.5-3.4-6.2-7.3-8.1-12-2-4.6-2.9-9.5-2.9-14.8s.9-10,2.7-14.5c1.8-4.6,4.3-8.5,7.5-11.9,3.2-3.4,7.1-6,11.8-8s9.7-2.9,15.2-2.9,9,.7,13,2c4.1,1.3,7.7,3.3,10.8,5.8s5.6,5.7,7.4,9.6c1.8,3.9,2.7,8.3,2.7,13.1s-.3,5.6-.9,9.1l-44.4-2c.4,3.9,2.2,6.9,5.4,8.8,3.2,1.9,7.2,2.8,12,2.8,8.7,0,16.4-2.4,23-7.1h1.6v26.5c-3,1.8-6.9,3.3-11.7,4.5s-10,1.8-15.6,1.8h.1Zm-13.8-43.8l20.3-1.1c-.6-1.8-1.7-3.2-3.4-4.2-1.7-1-3.7-1.6-6.1-1.6s-4.5,.6-6.4,1.7c-2,1.2-3.4,2.9-4.4,5.1h0Z"/>
            <path class="cls-3" d="M28.1,176H0V103.9H28.4l-4.5,41h1.2c.7-8.2,1.7-15.1,3-20.6,1.4-5.5,3.2-9.9,5.4-13,2.2-3.2,4.8-5.4,7.6-6.7,2.8-1.3,6.2-2,10.2-2v32.8h-1.6c-2.1-2.1-4.7-3.2-7.9-3.2s-7.6,1.9-10.1,5.7c-2.5,3.8-3.7,9.6-3.7,17.3v20.9h.1Z"/>
            <path class="cls-3" d="M74.2,113.9c-4.8,0-8.6-1.4-11.6-4.2-3-2.8-4.4-6.3-4.4-10.4s1.5-7.6,4.5-10.5c3-2.9,6.8-4.3,11.5-4.3s8.4,1.4,11.4,4.3c2.9,2.9,4.4,6.4,4.4,10.5s-1.5,7.6-4.4,10.4c-2.9,2.8-6.7,4.2-11.5,4.2h0Zm14.1,62.1h-28.4V111.6h.9c3.3,3.2,7.8,4.8,13.4,4.8s9.9-1.6,13.2-4.8h.9v64.3h0Z"/>
            <path class="cls-3" d="M124.1,177.4c-10.9,0-20.5-2.1-28.9-6.3v-29.1h1.8c7.6,7.6,16.9,11.4,27.9,11.4s4.3,0,4.3,0c.8,0,1.5,0,2-.1,.3-.5,.9-1.4,.8-2.5,0-.2,0-.4-.1-.6-.2-.4-.7-.5-1.5-.8-1.1-.4-2.5-.7-4.3-.9-1.8-.2-3.8-.6-6.1-1s-4.6-.9-7-1.5c-2.4-.5-4.7-1.4-7-2.5s-4.3-2.5-6.1-4c-1.8-1.5-3.2-3.5-4.3-5.9-1.1-2.4-1.6-5.2-1.6-8.3s.9-7.1,2.7-10.1c1.8-3,4.2-5.4,7.2-7.2s6.4-3.2,10.2-4.2c3.8-.9,7.8-1.4,12-1.4,10.2,0,19.8,2.4,28.8,7.2v25.5h-1.6c-3.5-3.1-7.9-5.6-13-7.4-5.2-1.9-10.4-2.8-15.6-2.8s-7.6,1-7.6,2.9,.2,1.1,.3,1.3c1.1,1.8,4,1.5,8,1.8,2.6,.2,4.4,.7,8.2,1.2,3,.4,6,1.2,9,2.2s5.7,2.2,8.2,3.6c2.5,1.4,4.5,3.4,6,5.9s2.3,5.4,2.3,8.8c0,5.6-1.5,10.3-4.6,14.1s-7.2,6.5-12.3,8.1c-5.1,1.7-11.2,2.5-18.1,2.5h0Z"/>
            <path class="cls-3" d="M274.9,21.1c-3.4-5.1-8.1-7.6-15.8-7.6s-13.6,3.5-17.7,10.5c-4,7-6.6,17.6-7.7,31.9h-1.1c.5-6,.8-11.2,.8-14.2s-.1-5.8-.4-8.3-.9-5-1.8-7.6c-.9-2.5-2-4.7-3.4-6.4-1.4-1.7-3.3-3.1-5.7-4.2-2.4-1.1-.8-1.6-8.3-1.6s-13.1,3.2-16.8,9.6c-3.7,6.5-6.3,17.4-8,32.8h-1.2l4.9-41h-28.4c0,24,0,48,.1,72v89h28.4v-20.8l5.5-5.6,11.5,26.3h30.9v-1.9l-23.4-41,21.6-22.1v-1.9h-31.2l-1.4,.9c-.9,.6-2.1,1.8-3.6,3.5-1.5,1.7-3,3.7-4.6,6.1-1.6,2.4-3.1,5.7-4.6,9.8-1.5,4.2-2.6,8.7-3.4,13.6h-1.2l3.2-55.9h0v-18.9c0-1.8,0-3.9,0-6.3,0-2.4,.2-4.3,.4-5.7,0-1.4,.3-2.9,.6-4.6s.7-3,1.1-3.9c.5-.9,1-1.7,1.6-2.6,.6-.8,1.4-1.4,2.2-1.8,.8-.3,1.8-.5,2.8-.5s2,.2,2.8,.6c.8,.4,1.5,1,2,1.8,.5,.8,1,1.6,1.3,2.5,.3,.9,.5,2.1,.7,3.4,0,1.4,.3,2.6,.3,3.8v32h28.1v-14.8c0-10.1,.5-17.5,1.7-22.2,1.1-4.7,3.3-7.1,6.5-7.1s1.5,0,2.1,.3c.6,.2,1.1,.4,1.6,.9s.9,.9,1.3,1.3c.4,.4,.7,1,1,1.8,.3,.7,.5,1.4,.7,2s.4,1.4,.5,2.4c.1,1,.3,1.8,.3,2.5,.1,.7,.1,1.6,.1,2.8v30.2h28.1V46.1c0-11.6-1.7-19.9-5.1-25Z"/>
            <g class="cls-5">
                <g>
                    <path class="cls-4" d="M269.1,127.3l24.2,11.1h37l3-5.4c1.8-3.2-.4-7.2-3.7-7.2h-60.3c-.9,0-1,1-.2,1.3h-.1Z"/>
                    <path class="cls-4" d="M293.3,143.3h60.3c.7,0,1.4,.6,1.4,1.4s-.5,1.2-1,1.3l-109.2,30c-.8,.2-1.2-.8-.7-1.2l49.1-31.5Z"/>
                    <path class="cls-4" d="M262.8,176l39.5-.8c3.8,0,8.4-2.3,10.4-5.9l4.8-8.4-54.7,15h0Z"/>
                </g>
            </g>
            <path class="cls-3" d="M346.6,0h-50.6V2.6h0c.1,1.3,1.6,2.4,3.4,2.4h50.6V0h-3.4Z"/>
        </g>
    </g>
</svg>